<svg viewBox="0 0 512 512" xmlns="http://www.w3.org/2000/svg">
  <defs>
    <linearGradient id="grad1" x1="0%" y1="0%" x2="100%" y2="100%">
      <stop offset="0%" style="stop-color:#667eea;stop-opacity:1" />
      <stop offset="100%" style="stop-color:#764ba2;stop-opacity:1" />
    </linearGradient>
    <linearGradient id="grad2" x1="0%" y1="0%" x2="100%" y2="100%">
      <stop offset="0%" style="stop-color:#f093fb;stop-opacity:1" />
      <stop offset="100%" style="stop-color:#f5576c;stop-opacity:1" />
    </linearGradient>
  </defs>

  <!-- Background circle -->
  <circle cx="256" cy="256" r="240" fill="url(#grad1)"/>

  <!-- Inner glow -->
  <circle cx="256" cy="256" r="200" fill="none" stroke="rgba(255,255,255,0.2)" stroke-width="2"/>

  <!-- Water drop shape -->
  <path d="M256 80 C256 80 140 200 140 300 C140 364 192 416 256 416 C320 416 372 364 372 300 C372 200 256 80 256 80 Z" fill="rgba(255,255,255,0.95)"/>

  <!-- Wave lines inside drop -->
  <path d="M180 280 Q218 260 256 280 Q294 300 332 280" fill="none" stroke="url(#grad1)" stroke-width="8" stroke-linecap="round"/>
  <path d="M180 320 Q218 300 256 320 Q294 340 332 320" fill="none" stroke="url(#grad2)" stroke-width="8" stroke-linecap="round"/>
  <path d="M200 360 Q228 345 256 360 Q284 375 312 360" fill="none" stroke="url(#grad1)" stroke-width="6" stroke-linecap="round"/>

  <!-- AI circuit dots -->
  <circle cx="200" cy="240" r="8" fill="url(#grad2)"/>
  <circle cx="256" cy="220" r="8" fill="url(#grad2)"/>
  <circle cx="312" cy="240" r="8" fill="url(#grad2)"/>

  <!-- Connecting lines -->
  <path d="M200 240 L256 220 L312 240" fill="none" stroke="url(#grad2)" stroke-width="3" stroke-linecap="round"/>

  <!-- Outer decorative ring -->
  <circle cx="256" cy="256" r="248" fill="none" stroke="rgba(255,255,255,0.3)" stroke-width="4" stroke-dasharray="20 10"/>
</svg>
